<svg width="339" height="363" viewBox="0 0 339 363" fill="none" xmlns="http://www.w3.org/2000/svg">
<path d="M172.325 28.4296L173.66 13.2154L178.794 13.7314C179.987 13.8512 180.942 14.1645 181.661 14.6715C182.386 15.1739 182.899 15.8076 183.201 16.5724C183.503 17.3372 183.615 18.1678 183.536 19.0642C183.458 19.9606 183.203 20.7569 182.773 21.4531C182.348 22.1498 181.737 22.6781 180.942 23.0378C180.148 23.3926 179.159 23.5107 177.977 23.3918L174.297 23.022L174.44 21.3877L178.061 21.7515C178.877 21.8336 179.545 21.7583 180.064 21.5257C180.584 21.2931 180.976 20.9478 181.241 20.4898C181.511 20.0273 181.673 19.4915 181.726 18.8823C181.779 18.2731 181.713 17.7169 181.528 17.2136C181.348 16.7109 181.019 16.2982 180.544 15.9756C180.068 15.648 179.418 15.4428 178.592 15.3597L175.357 15.0346L174.165 28.6146L172.325 28.4296Z" fill="#B43636"/>
<path d="M202.92 33.3597C201.93 33.0592 201.125 32.5577 200.504 31.8551C199.889 31.1539 199.485 30.3121 199.293 29.3296C199.106 28.3485 199.164 27.2861 199.467 26.1424C199.773 24.989 200.247 24.0451 200.889 23.3107C201.536 22.5776 202.293 22.0859 203.161 21.8356C204.034 21.5867 204.966 21.6125 205.955 21.913C206.944 22.2135 207.747 22.7143 208.363 23.4155C208.984 24.1181 209.387 24.9623 209.573 25.9482C209.763 26.9355 209.706 28.0059 209.4 29.1592C209.097 30.3029 208.622 31.2389 207.977 31.9671C207.336 32.6968 206.579 33.1861 205.706 33.435C204.838 33.6853 203.909 33.6603 202.92 33.3597ZM203.325 31.8316C204.077 32.0599 204.747 32.0531 205.335 31.8112C205.923 31.5693 206.418 31.1666 206.82 30.6031C207.221 30.0396 207.52 29.3878 207.716 28.6477C207.912 27.9077 207.978 27.1827 207.915 26.4727C207.851 25.7628 207.629 25.1371 207.248 24.5957C206.868 24.0543 206.301 23.6694 205.55 23.4411C204.798 23.2129 204.127 23.2221 203.538 23.4687C202.948 23.7154 202.452 24.1229 202.049 24.6913C201.647 25.2596 201.347 25.9138 201.151 26.6538C200.955 27.3939 200.889 28.1165 200.954 28.8216C201.019 29.5267 201.242 30.1476 201.625 30.6842C202.007 31.2208 202.573 31.6033 203.325 31.8316Z" fill="#B43636"/>
<path d="M222.195 39.8795L226.648 29.3258L228.179 30.0657L227.506 31.6597L227.614 31.7116C228.022 31.2803 228.541 31.021 229.171 30.9338C229.8 30.8465 230.424 30.9522 231.042 31.2507C231.158 31.3069 231.302 31.3795 231.475 31.4685C231.648 31.5574 231.777 31.6281 231.863 31.6805L231.167 33.3296C231.119 33.2898 231.004 33.2097 230.824 33.0892C230.649 32.9663 230.457 32.854 230.246 32.7523C229.745 32.5101 229.252 32.4014 228.767 32.4263C228.289 32.4488 227.856 32.5927 227.469 32.8579C227.089 33.1208 226.798 33.4904 226.597 33.9668L223.78 40.6453L222.195 39.8795Z" fill="#B43636"/>
<path d="M246.658 40.1421L245.942 41.4506L240.912 38.2984L241.628 36.9899L246.658 40.1421ZM244.411 35.5011L245.902 36.4357L240.662 46.0135C240.423 46.4496 240.305 46.815 240.308 47.1097C240.318 47.4026 240.399 47.6468 240.552 47.8424C240.712 48.0363 240.902 48.2019 241.121 48.3392C241.285 48.4421 241.424 48.5179 241.539 48.5664C241.657 48.6106 241.75 48.646 241.821 48.6725L241.365 50.2495C241.243 50.2254 241.08 50.1762 240.877 50.102C240.672 50.0321 240.431 49.91 240.153 49.7357C239.732 49.4717 239.37 49.1192 239.068 48.6782C238.771 48.2399 238.594 47.7457 238.539 47.1955C238.487 46.648 238.622 46.0821 238.942 45.4976L244.411 35.5011Z" fill="#B43636"/>
<path d="M252.211 58.3756C251.419 57.7107 250.869 56.9288 250.562 56.03C250.259 55.1343 250.202 54.189 250.39 53.1939C250.582 52.202 251.028 51.2289 251.727 50.2746C252.432 49.3122 253.214 48.6112 254.071 48.1716C254.932 47.7352 255.805 47.5678 256.69 47.6695C257.579 47.7744 258.419 48.1593 259.211 48.8243C260.003 49.4892 260.551 50.2695 260.854 51.1651C261.161 52.064 261.217 53.0113 261.022 54.0072C260.831 55.0063 260.383 55.987 259.677 56.9494C258.978 57.9037 258.199 58.5971 257.341 59.0295C256.486 59.4651 255.615 59.6305 254.726 59.5256C253.841 59.4239 253.003 59.0406 252.211 58.3756ZM253.145 57.1005C253.747 57.6056 254.361 57.8588 254.987 57.86C255.614 57.8613 256.214 57.6756 256.789 57.303C257.363 56.9303 257.877 56.4352 258.329 55.8177C258.782 55.2002 259.111 54.5465 259.315 53.8565C259.519 53.1666 259.548 52.4942 259.4 51.8393C259.253 51.1844 258.878 50.6045 258.277 50.0994C257.675 49.5943 257.06 49.3431 256.43 49.3459C255.801 49.3486 255.198 49.5383 254.62 49.915C254.043 50.2916 253.528 50.7887 253.075 51.4062C252.622 52.0238 252.295 52.6755 252.094 53.3614C251.893 54.0473 251.867 54.7157 252.017 55.3666C252.168 56.0175 252.544 56.5954 253.145 57.1005Z" fill="#B43636"/>
<path d="M279.153 62.3266L268.685 73.4472L267.488 72.1568L277.956 61.0362L279.153 62.3266Z" fill="#B43636"/>
<path d="M275.168 79.3777L283.595 71.6191L284.697 72.9909L276.27 80.7494L275.168 79.3777ZM285.56 71.0235C285.345 70.7562 285.245 70.4465 285.262 70.0944C285.281 69.7463 285.411 69.4611 285.653 69.2389C285.894 69.0166 286.177 68.9213 286.501 68.9529C286.829 68.9884 287.1 69.1398 287.315 69.4072C287.53 69.6745 287.628 69.9823 287.609 70.3304C287.593 70.6825 287.464 70.9696 287.222 71.1918C286.981 71.4141 286.697 71.5075 286.369 71.472C286.044 71.4404 285.775 71.2909 285.56 71.0235Z" fill="#B43636"/>
<path d="M284.462 92.347C283.916 91.4683 283.639 90.5547 283.628 89.6063C283.621 88.6622 283.862 87.7479 284.353 86.8636C284.846 85.9834 285.575 85.2006 286.54 84.5152C287.512 83.8241 288.475 83.4045 289.429 83.2565C290.385 83.1128 291.268 83.2279 292.078 83.6019C292.891 83.98 293.57 84.6084 294.115 85.4872C294.66 86.3659 294.936 87.2773 294.944 88.2215C294.954 89.1698 294.711 90.0855 294.213 90.9686C293.719 91.8558 292.985 92.645 292.012 93.3362C291.048 94.0216 290.089 94.4347 289.137 94.5756C288.188 94.7207 287.307 94.6041 286.494 94.226C285.684 93.852 285.007 93.2257 284.462 92.347ZM285.75 91.4312C286.164 92.0987 286.669 92.5312 287.265 92.7289C287.86 92.9265 288.49 92.9388 289.153 92.7656C289.817 92.5925 290.46 92.2842 291.084 91.8407C291.709 91.3972 292.226 90.8804 292.636 90.2904C293.047 89.7004 293.285 89.0718 293.35 88.4048C293.415 87.7377 293.24 87.0704 292.826 86.403C292.412 85.7355 291.905 85.3043 291.305 85.1096C290.706 84.9148 290.072 84.9054 289.405 85.0815C288.737 85.2575 288.092 85.5672 287.468 86.0107C286.843 86.4542 286.328 86.9695 285.922 87.5567C285.515 88.1438 285.281 88.7695 285.22 89.4337C285.16 90.0979 285.336 90.7637 285.75 91.4312Z" fill="#B43636"/>
<path d="M300.458 122.854L314.799 117.601L315.362 119.363L302.562 124.052L304.724 130.814L303.184 131.378L300.458 122.854Z" fill="#B43636"/>
<path d="M307.178 146.408L318.349 143.874L318.691 145.601L307.52 148.134L307.178 146.408ZM320.385 144.33C320.318 143.993 320.375 143.677 320.554 143.382C320.735 143.091 320.985 142.91 321.305 142.837C321.625 142.765 321.923 142.822 322.198 143.009C322.474 143.201 322.645 143.466 322.712 143.802C322.779 144.139 322.722 144.452 322.541 144.743C322.362 145.038 322.112 145.222 321.792 145.295C321.472 145.368 321.174 145.308 320.897 145.116C320.622 144.928 320.451 144.666 320.385 144.33Z" fill="#B43636"/>
<path d="M316.466 158.692L309.605 159.326L309.463 157.572L320.869 156.518L321.006 158.213L319.224 158.377L319.236 158.526C319.836 158.74 320.335 159.103 320.73 159.616C321.13 160.128 321.365 160.815 321.435 161.678C321.497 162.451 321.393 163.142 321.123 163.751C320.858 164.359 320.419 164.854 319.807 165.235C319.199 165.616 318.41 165.851 317.44 165.941L310.192 166.611L310.051 164.857L317.18 164.198C318.076 164.115 318.755 163.818 319.217 163.305C319.685 162.793 319.885 162.13 319.82 161.318C319.775 160.758 319.613 160.268 319.335 159.85C319.057 159.436 318.675 159.124 318.19 158.915C317.704 158.705 317.129 158.631 316.466 158.692Z" fill="#B43636"/>
<path d="M315.136 186.275L317.307 186.437L317.28 186.793L321.975 192.239L321.808 194.41L316.84 188.611L316.852 188.462L315.136 186.275ZM311.102 184.271L326.316 185.616L326.18 187.371L310.967 186.026L311.102 184.271ZM310.542 191.528L316.532 187.566L317.654 188.923L310.37 193.758L310.542 191.528Z" fill="#B43636"/>
<path d="M309.128 228.963L308.453 230.876L305.814 231.641L305.112 231.84L301.143 232.968L301.818 231.055L304.447 230.318L305.112 230.136L309.128 228.963ZM309.342 236.956C307.849 236.352 306.655 235.557 305.761 234.569C304.866 233.581 304.293 232.489 304.04 231.294C303.787 230.099 303.878 228.888 304.311 227.659C304.744 226.431 305.424 225.458 306.352 224.74C307.279 224.022 308.384 223.608 309.665 223.499C310.946 223.39 312.334 223.637 313.827 224.241C315.321 224.844 316.515 225.64 317.409 226.628C318.303 227.616 318.877 228.707 319.13 229.902C319.382 231.097 319.292 232.309 318.859 233.537C318.425 234.765 317.745 235.739 316.818 236.457C315.89 237.175 314.786 237.588 313.505 237.697C312.223 237.806 310.836 237.559 309.342 236.956ZM309.938 235.268C311.164 235.763 312.272 235.973 313.263 235.896C314.252 235.825 315.088 235.522 315.771 234.989C316.453 234.461 316.947 233.761 317.255 232.889C317.562 232.017 317.624 231.139 317.441 230.256C317.255 229.378 316.815 228.56 316.118 227.802C315.42 227.048 314.458 226.424 313.232 225.928C312.006 225.433 310.898 225.221 309.909 225.293C308.918 225.37 308.082 225.672 307.401 226.2C306.718 226.733 306.223 227.435 305.915 228.308C305.607 229.18 305.546 230.055 305.731 230.933C305.915 231.816 306.356 232.634 307.054 233.388C307.75 234.146 308.712 234.773 309.938 235.268Z" fill="#B43636"/>
<path d="M295.022 262.272L300.636 266.059L299.743 267.575L290.247 261.17L291.14 259.654L292.747 260.738L292.808 260.635C292.462 260.078 292.263 259.442 292.213 258.726C292.167 258.012 292.363 257.282 292.802 256.537C293.165 255.92 293.618 255.459 294.16 255.155C294.707 254.853 295.324 254.743 296.013 254.824C296.707 254.909 297.457 255.224 298.265 255.768L304.299 259.838L303.406 261.355L297.471 257.352C296.778 256.885 296.107 256.713 295.458 256.838C294.806 256.967 294.295 257.346 293.924 257.976C293.702 258.353 293.569 258.799 293.525 259.314C293.478 259.833 293.569 260.355 293.795 260.879C294.02 261.408 294.429 261.872 295.022 262.272Z" fill="#B43636"/>
<path d="M281.44 275.151L290.06 282.695L288.991 284.093L280.371 276.55L281.44 275.151ZM290.953 284.663C291.161 284.39 291.429 284.232 291.755 284.189C292.079 284.149 292.365 284.237 292.611 284.453C292.858 284.669 292.996 284.951 293.024 285.298C293.049 285.65 292.957 285.962 292.749 286.234C292.541 286.507 292.275 286.663 291.951 286.703C291.624 286.747 291.337 286.66 291.09 286.444C290.843 286.228 290.707 285.944 290.683 285.593C290.655 285.246 290.745 284.936 290.953 284.663Z" fill="#B43636"/>
<path d="M270.733 286.783C271.481 286.012 272.295 285.538 273.174 285.359C274.054 285.18 274.936 285.272 275.822 285.635C276.708 285.997 277.533 286.604 278.297 287.454C279.074 288.32 279.611 289.237 279.908 290.206C280.205 291.182 280.252 292.133 280.051 293.059C279.849 293.992 279.388 294.83 278.667 295.571C278.106 296.149 277.5 296.558 276.85 296.8C276.2 297.041 275.552 297.11 274.906 297.007C274.26 296.903 273.662 296.621 273.115 296.16L274.341 294.898C274.784 295.19 275.301 295.32 275.892 295.288C276.483 295.263 277.049 294.973 277.59 294.416C278.068 293.924 278.367 293.36 278.489 292.723C278.61 292.093 278.555 291.434 278.324 290.747C278.093 290.066 277.688 289.404 277.11 288.761C276.519 288.103 275.907 287.629 275.274 287.341C274.638 287.056 274.02 286.962 273.421 287.059C272.818 287.16 272.274 287.46 271.789 287.959C271.47 288.287 271.234 288.644 271.081 289.029C270.927 289.415 270.86 289.812 270.879 290.219C270.898 290.626 271.009 291.024 271.212 291.413L269.985 292.675C269.603 292.101 269.367 291.472 269.279 290.787C269.19 290.109 269.263 289.422 269.498 288.726C269.732 288.036 270.144 287.389 270.733 286.783Z" fill="#B43636"/>
<path d="M257.63 305.793L258.828 307.609L258.539 307.821L257.246 315.08L255.49 316.367L256.887 308.663L257.007 308.575L257.63 305.793ZM256.702 301.305L264.934 314.17L263.515 315.21L255.283 302.346L256.702 301.305ZM250.832 305.608L257.496 307.737L257.144 309.508L249.027 306.931L250.832 305.608Z" fill="#B43636"/>
<path d="M230.653 336.035L222.445 325.377L222.277 325.439L221.982 339.247L220.164 339.921L220.722 323.441L222.513 322.778L232.471 335.361L230.653 336.035Z" fill="#B43636"/>
<path d="M199.733 330.276L201.799 341.542L200.077 341.904L198.01 330.637L199.733 330.276ZM201.268 343.604C201.603 343.533 201.914 343.588 202.199 343.766C202.48 343.946 202.65 344.197 202.709 344.52C202.768 344.843 202.7 345.144 202.503 345.424C202.302 345.705 202.034 345.881 201.698 345.951C201.362 346.022 201.054 345.967 200.774 345.787C200.488 345.609 200.316 345.358 200.257 345.035C200.198 344.712 200.269 344.411 200.47 344.13C200.666 343.85 200.932 343.674 201.268 343.604Z" fill="#B43636"/>
<path d="M184.414 332.79C185.514 332.701 186.48 332.868 187.312 333.29C188.14 333.717 188.8 334.352 189.293 335.195C189.781 336.044 190.066 337.053 190.148 338.224C190.231 339.394 190.09 340.443 189.726 341.37C189.358 342.302 188.808 343.05 188.075 343.612C187.337 344.18 186.453 344.506 185.422 344.589C184.828 344.637 184.234 344.585 183.64 344.433C183.046 344.281 182.496 344.001 181.989 343.593C181.482 343.19 181.062 342.635 180.728 341.929C180.394 341.223 180.19 340.337 180.115 339.27L180.063 338.526L188.864 337.818L188.971 339.336L181.953 339.9C181.999 340.545 182.168 341.11 182.461 341.595C182.75 342.081 183.139 342.451 183.631 342.706C184.117 342.961 184.677 343.063 185.312 343.012C186.01 342.955 186.603 342.733 187.089 342.345C187.57 341.962 187.928 341.485 188.162 340.912C188.396 340.34 188.491 339.739 188.446 339.109L188.375 338.097C188.315 337.234 188.115 336.515 187.775 335.938C187.431 335.368 186.98 334.947 186.423 334.678C185.866 334.414 185.234 334.31 184.525 334.367C184.064 334.404 183.652 334.502 183.29 334.661C182.923 334.825 182.612 335.05 182.358 335.334C182.104 335.624 181.917 335.973 181.796 336.382L180.068 336.042C180.206 335.453 180.47 334.923 180.861 334.452C181.252 333.987 181.748 333.608 182.351 333.315C182.953 333.027 183.641 332.852 184.414 332.79Z" fill="#B43636"/>
<path d="M162.056 334.114L164.13 345.966L162.298 345.711L160.904 336.664L160.786 336.647L157.305 345.016L155.444 344.756L154.106 335.747L153.987 335.731L150.481 344.065L148.649 343.81L153.488 332.921L155.201 333.159L156.621 342.24L156.798 342.265L160.342 333.875L162.056 334.114Z" fill="#B43636"/>
<path d="M119.505 324.417L113.505 338.462L108.87 336.194C107.794 335.667 106.999 335.038 106.485 334.306C105.966 333.576 105.684 332.794 105.641 331.961C105.597 331.127 105.752 330.296 106.106 329.469C106.459 328.641 106.946 327.97 107.565 327.455C108.18 326.938 108.916 326.645 109.771 326.577C110.624 326.514 111.584 326.743 112.651 327.265L115.974 328.891L115.329 330.4L112.06 328.8C111.324 328.44 110.676 328.281 110.118 328.323C109.56 328.365 109.086 328.558 108.696 328.904C108.299 329.251 107.981 329.706 107.74 330.268C107.5 330.831 107.388 331.384 107.404 331.928C107.416 332.47 107.593 332.977 107.937 333.449C108.278 333.926 108.822 334.346 109.568 334.711L112.488 336.14L117.843 323.604L119.505 324.417Z" fill="#DBAE31"/>
<path d="M92.3104 308.904C93.1375 309.525 93.7283 310.275 94.0828 311.156C94.4333 312.033 94.541 312.973 94.4059 313.976C94.2668 314.976 93.8731 315.97 93.2246 316.96C92.5706 317.958 91.8268 318.699 90.9931 319.184C90.1555 319.666 89.2916 319.88 88.4016 319.826C87.5076 319.769 86.647 319.43 85.82 318.81C84.9929 318.189 84.4041 317.44 84.0536 316.563C83.6991 315.682 83.5927 314.74 83.7345 313.736C83.8723 312.729 84.2682 311.727 84.9222 310.729C85.5707 309.739 86.3124 309.005 87.1473 308.528C87.9783 308.047 88.8407 307.835 89.7348 307.892C90.6248 307.946 91.4834 308.283 92.3104 308.904ZM91.4439 310.227C90.8157 309.755 90.1884 309.536 89.5621 309.568C88.9359 309.6 88.3455 309.818 87.791 310.221C87.2365 310.623 86.7494 311.145 86.3298 311.785C85.9102 312.426 85.6166 313.095 85.449 313.795C85.2814 314.494 85.2887 315.166 85.4709 315.812C85.653 316.457 86.0582 317.016 86.6865 317.487C87.3147 317.959 87.9433 318.176 88.5723 318.14C89.2013 318.103 89.7945 317.881 90.3517 317.474C90.9089 317.068 91.3974 316.544 91.817 315.904C92.2366 315.263 92.5288 314.595 92.6937 313.9C92.8585 313.205 92.8485 312.537 92.6636 311.896C92.4787 311.254 92.0722 310.698 91.4439 310.227Z" fill="#DBAE31"/>
<path d="M76.1267 295.875L68.5391 304.456L67.3445 303.246L68.4906 301.95L68.4067 301.865C67.8846 302.141 67.3145 302.216 66.6965 302.092C66.0784 301.967 65.5284 301.661 65.0463 301.172C64.9555 301.08 64.8437 300.964 64.7107 300.822C64.5778 300.68 64.4797 300.57 64.4164 300.492L65.602 299.151C65.634 299.205 65.7153 299.319 65.8457 299.493C65.9693 299.668 66.1133 299.838 66.2774 300.005C66.6686 300.401 67.0953 300.667 67.5575 300.804C68.0129 300.94 68.4647 300.946 68.9128 300.821C69.3542 300.696 69.7462 300.44 70.0887 300.053L74.8902 294.622L76.1267 295.875Z" fill="#ACB436"/>
<path d="M52.376 288.088L53.473 287.078L57.1932 291.704L56.0962 292.714L52.376 288.088ZM52.9935 293.225L51.8906 291.854L59.9203 284.457C60.286 284.12 60.515 283.811 60.6075 283.53C60.6932 283.249 60.6955 282.991 60.6143 282.755C60.5264 282.519 60.4014 282.301 60.2394 282.099C60.1179 281.948 60.0108 281.831 59.9183 281.747C59.8221 281.667 59.7452 281.603 59.6875 281.555L60.6259 280.205C60.7336 280.268 60.8709 280.367 61.0378 280.504C61.2084 280.637 61.3964 280.831 61.6021 281.087C61.9137 281.474 62.1404 281.926 62.2823 282.443C62.421 282.956 62.4277 283.482 62.3022 284.023C62.1736 284.559 61.8643 285.053 61.3743 285.505L52.9935 293.225Z" fill="#ACB436"/>
<path d="M43.8571 276.224L45.0462 275.323L48.4511 280.474L47.262 281.375L43.8571 276.224ZM55.3745 272.917L44.9818 280.786C44.4586 281.182 43.9376 281.384 43.4188 281.391C42.9 281.398 42.4177 281.262 41.9719 280.983C41.5261 280.705 41.1524 280.337 40.8509 279.881C40.6124 279.52 40.4455 279.205 40.3502 278.935C40.2549 278.665 40.194 278.456 40.1676 278.308L41.6601 277.812C41.6856 277.905 41.7245 278.031 41.7765 278.191C41.8258 278.346 41.9204 278.53 42.0602 278.742C42.3809 279.227 42.7295 279.489 43.1059 279.527C43.4796 279.562 43.8924 279.408 44.3442 279.066L54.404 271.449L55.3745 272.917Z" fill="#B43636"/>
<path d="M45.6107 256.193C46.06 257.125 46.2388 258.061 46.1471 259.002C46.0532 259.939 45.714 260.818 45.1295 261.64C44.5428 262.458 43.7317 263.152 42.696 263.725C41.6516 264.302 40.646 264.611 39.6791 264.651C38.7101 264.688 37.8418 264.476 37.074 264.015C36.3041 263.55 35.6945 262.852 35.2452 261.92C34.796 260.989 34.6183 260.055 34.7121 259.118C34.8039 258.177 35.1452 257.297 35.7362 256.477C36.3251 255.653 37.1417 254.952 38.1861 254.375C39.2218 253.803 40.2219 253.5 41.1866 253.466C42.1491 253.427 43.0153 253.641 43.7852 254.106C44.553 254.566 45.1615 255.262 45.6107 256.193ZM44.2269 256.958C43.8857 256.251 43.4286 255.766 42.8558 255.504C42.2831 255.242 41.6565 255.16 40.9763 255.258C40.296 255.356 39.6209 255.59 38.9507 255.96C38.2806 256.33 37.709 256.785 37.2361 257.324C36.7632 257.863 36.4585 258.46 36.3219 259.114C36.1854 259.768 36.2878 260.448 36.6291 261.156C36.9703 261.863 37.4295 262.347 38.0067 262.607C38.5838 262.866 39.2147 262.946 39.8993 262.845C40.5839 262.745 41.2612 262.51 41.9314 262.139C42.6015 261.769 43.1709 261.316 43.6395 260.779C44.108 260.242 44.4084 259.648 44.5406 258.997C44.6727 258.345 44.5682 257.666 44.2269 256.958Z" fill="#ACB436"/>
<path d="M22.1633 240.631L36.3817 235.055L36.9518 236.72L22.7334 242.296L22.1633 240.631Z" fill="#B43636"/>
<path d="M33.6645 226.431L22.7134 229.789L22.2582 228.089L33.2093 224.731L33.6645 226.431ZM20.6567 229.485C20.7455 229.816 20.7103 230.136 20.5512 230.445C20.3908 230.748 20.1537 230.948 19.84 231.045C19.5263 231.141 19.2263 231.105 18.9399 230.939C18.6522 230.767 18.464 230.516 18.3753 230.184C18.2865 229.853 18.3224 229.535 18.4828 229.231C18.6419 228.923 18.8783 228.72 19.192 228.624C19.5057 228.528 19.8064 228.566 20.0941 228.737C20.3805 228.904 20.568 229.153 20.6567 229.485Z" fill="#ACB436"/>
<path d="M30.2106 210.679C30.3588 211.702 30.246 212.64 29.8723 213.493C29.4979 214.341 28.9055 215.054 28.0952 215.632C27.2841 216.205 26.295 216.588 25.1277 216.782C23.9506 216.977 22.8921 216.933 21.9522 216.651C21.0116 216.363 20.2429 215.876 19.6462 215.189C19.0488 214.497 18.676 213.639 18.5278 212.616C18.3797 211.593 18.4928 210.657 18.8672 209.809C19.2409 208.956 19.8357 208.242 20.6517 207.669C21.4669 207.09 22.4631 206.703 23.6402 206.508C24.8075 206.314 25.859 206.362 26.7947 206.65C27.7297 206.933 28.4959 207.421 29.0933 208.113C29.69 208.8 30.0624 209.655 30.2106 210.679ZM28.6509 210.937C28.5384 210.16 28.2471 209.553 27.7772 209.117C27.3073 208.681 26.7311 208.396 26.0488 208.263C25.3665 208.129 24.6477 208.125 23.8924 208.25C23.1371 208.375 22.4507 208.612 21.8333 208.962C21.2159 209.311 20.7425 209.77 20.4129 210.338C20.0834 210.907 19.975 211.58 20.0875 212.357C20.2001 213.135 20.4938 213.741 20.9686 214.176C21.4434 214.611 22.0245 214.895 22.7117 215.028C23.3989 215.161 24.1202 215.165 24.8755 215.04C25.6308 214.915 26.3147 214.678 26.9272 214.329C27.5397 213.981 28.0083 213.523 28.3329 212.955C28.6575 212.387 28.7635 211.715 28.6509 210.937Z" fill="#DBAE31"/>
<path d="M22.9125 168.962L23.1599 166.949L25.5827 165.573L26.228 165.212L29.8751 163.165L29.6277 165.179L27.2086 166.525L26.5964 166.86L22.9125 168.962ZM20.9718 161.28C22.5669 161.504 23.9099 161.987 25.0008 162.728C26.0917 163.469 26.8903 164.387 27.3968 165.482C27.9033 166.577 28.0771 167.772 27.9182 169.064C27.7594 170.357 27.303 171.463 26.5492 172.381C25.7953 173.298 24.802 173.964 23.5692 174.378C22.3364 174.792 20.9225 174.887 19.3274 174.662C17.7324 174.438 16.3894 173.955 15.2985 173.214C14.2076 172.473 13.4089 171.555 12.9024 170.46C12.396 169.365 12.2222 168.17 12.381 166.878C12.5399 165.585 12.9962 164.479 13.7501 163.561C14.5039 162.643 15.4972 161.978 16.73 161.564C17.9628 161.15 19.3767 161.055 20.9718 161.28ZM20.7535 163.056C19.444 162.872 18.3118 162.936 17.3569 163.248C16.4026 163.556 15.6483 164.049 15.094 164.729C14.5403 165.404 14.207 166.201 14.0942 167.119C13.9815 168.037 14.1107 168.901 14.4819 169.711C14.8537 170.516 15.4631 171.202 16.3101 171.768C17.1576 172.329 18.2362 172.701 19.5457 172.886C20.8553 173.07 21.9872 173.008 22.9414 172.701C23.8963 172.389 24.6506 171.895 25.2043 171.22C25.7587 170.54 26.0922 169.741 26.205 168.823C26.3178 167.905 26.1882 167.044 25.8164 166.239C25.4452 165.428 24.8358 164.743 23.9883 164.182C23.1413 163.616 22.063 163.241 20.7535 163.056Z" fill="#B43636"/>
<path d="M29.6035 133.223L23.2519 130.876L23.7922 129.201L34.5368 133.171L33.9965 134.846L32.1777 134.174L32.1411 134.288C32.6043 134.745 32.9401 135.314 33.1485 135.995C33.3523 136.673 33.3214 137.425 33.0558 138.248C32.836 138.929 32.4937 139.481 32.029 139.902C31.5596 140.322 30.9776 140.573 30.283 140.655C29.5837 140.735 28.7771 140.607 27.863 140.269L21.0358 137.746L21.5761 136.071L28.2914 138.553C29.0749 138.842 29.7715 138.851 30.3813 138.578C30.9927 138.301 31.4105 137.815 31.6349 137.119C31.7692 136.703 31.8009 136.241 31.7299 135.732C31.6605 135.22 31.4562 134.736 31.1171 134.283C30.7796 133.824 30.2751 133.471 29.6035 133.223Z" fill="#B43636"/>
<path d="M40.1889 117.389L30.0493 112.06L30.7832 110.461L40.9228 115.789L40.1889 117.389ZM28.7325 110.359C28.5894 110.671 28.3627 110.885 28.0522 111.002C27.7437 111.115 27.4443 111.095 27.1538 110.943C26.8634 110.79 26.6655 110.549 26.5603 110.218C26.4571 109.884 26.477 109.561 26.6201 109.249C26.7631 108.937 26.9888 108.725 27.2973 108.612C27.6078 108.495 27.9083 108.512 28.1987 108.665C28.4892 108.818 28.686 109.061 28.7892 109.396C28.8944 109.726 28.8755 110.047 28.7325 110.359Z" fill="#B43636"/>
<path d="M47.3035 103.013C46.7455 103.93 46.057 104.575 45.2379 104.948C44.4188 105.321 43.5356 105.432 42.5884 105.28C41.6412 105.128 40.6985 104.725 39.7602 104.072C38.8056 103.407 38.0743 102.637 37.5662 101.763C37.0567 100.882 36.7961 99.969 36.7844 99.0236C36.7713 98.0711 37.0334 97.1531 37.5707 96.2695C37.9892 95.5814 38.4887 95.0465 39.0693 94.6647C39.6499 94.283 40.2677 94.0693 40.9226 94.0237C41.5776 93.978 42.2247 94.1173 42.8638 94.4415L41.9493 95.9452C41.4512 95.7615 40.9169 95.7521 40.3462 95.917C39.774 96.0748 39.2864 96.485 38.8835 97.1477C38.527 97.7339 38.3613 98.3502 38.3863 98.9965C38.4099 99.6358 38.612 100.263 38.9925 100.879C39.3715 101.488 39.9159 102.039 40.6257 102.534C41.3518 103.04 42.0565 103.361 42.7396 103.498C43.4254 103.631 44.0502 103.583 44.614 103.353C45.1805 103.118 45.6445 102.704 46.0062 102.109C46.2438 101.718 46.3943 101.318 46.4575 100.909C46.5207 100.499 46.497 100.099 46.3866 99.7073C46.2762 99.3159 46.078 98.9542 45.7922 98.622L46.7066 97.1183C47.2098 97.5897 47.5816 98.1481 47.8222 98.7934C48.0613 99.4316 48.1448 100.116 48.0726 100.845C47.999 101.568 47.7426 102.291 47.3035 103.013Z" fill="#B43636"/>
<path d="M56.7887 81.8635L55.2153 80.3608L55.4483 80.089L55.0691 72.7105L56.4861 71.0571L56.8646 78.8936L56.7676 79.0069L56.7887 81.8635ZM58.7014 86.0347L47.8022 75.3359L48.9475 73.9995L59.8466 84.6984L58.7014 86.0347ZM63.4376 80.5081L56.4814 79.9354L56.4239 78.1273L64.8934 78.8094L63.4376 80.5081Z" fill="#B43636"/>
<path d="M76.4849 45.7311L86.7742 54.2659L86.9225 54.1657L84.1469 40.5538L85.7534 39.4683L88.8669 55.7624L87.2851 56.8313L74.8784 46.8167L76.4849 45.7311Z" fill="#B43636"/>
<path d="M107.792 43.9005L103.333 33.3495L104.917 32.5827L109.376 43.1336L107.792 43.9005ZM103.395 31.2011C103.086 31.3506 102.775 31.3719 102.46 31.265C102.15 31.1559 101.931 30.9502 101.803 30.648C101.675 30.3457 101.676 30.0339 101.804 29.7126C101.937 29.389 102.157 29.1525 102.466 29.003C102.775 28.8535 103.084 28.8334 103.395 28.9424C103.709 29.0494 103.931 29.2539 104.058 29.5562C104.186 29.8584 104.184 30.1713 104.051 30.4948C103.923 30.8162 103.704 31.0517 103.395 31.2011Z" fill="#B43636"/>
<path d="M122.151 37.6118C121.105 37.9639 120.134 38.0339 119.238 37.8219C118.345 37.6035 117.57 37.1411 116.912 36.4349C116.257 35.7223 115.764 34.8031 115.433 33.6774C115.103 32.5517 115.014 31.4914 115.167 30.4964C115.323 29.4951 115.695 28.6306 116.284 27.903C116.876 27.169 117.662 26.637 118.642 26.3071C119.207 26.1168 119.794 26.0242 120.401 26.0294C121.008 26.0346 121.601 26.1757 122.18 26.4527C122.757 26.7249 123.283 27.1664 123.758 27.7772C124.232 28.3879 124.62 29.2061 124.922 30.2316L125.132 30.9471L116.764 33.7642L116.335 32.3046L123.007 30.0585C122.824 29.4385 122.539 28.9264 122.151 28.5224C121.768 28.1167 121.311 27.8486 120.781 27.7178C120.255 27.5855 119.691 27.6209 119.088 27.8239C118.423 28.0476 117.898 28.408 117.51 28.9053C117.127 29.3962 116.883 29.95 116.779 30.5667C116.676 31.1834 116.713 31.7947 116.891 32.4004L117.177 33.3735C117.421 34.2034 117.769 34.8594 118.222 35.3414C118.677 35.817 119.204 36.1194 119.801 36.2486C120.397 36.373 121.031 36.3218 121.705 36.095C122.143 35.9474 122.521 35.7522 122.838 35.5092C123.158 35.2599 123.411 34.9652 123.595 34.6251C123.779 34.2803 123.885 33.8933 123.914 33.4641L125.66 33.3796C125.653 33.99 125.511 34.5725 125.234 35.127C124.956 35.6768 124.556 36.1677 124.036 36.5997C123.514 37.027 122.886 37.3643 122.151 37.6118Z" fill="#B43636"/>
<path d="M143.369 30.7771L138.837 19.7422L140.676 19.546L143.951 28.0154L144.07 28.0028L145.689 19.0112L147.557 18.8119L150.77 27.2579L150.889 27.2453L152.54 18.2802L154.379 18.084L151.971 29.8595L150.251 30.043L146.943 21.547L146.765 21.566L145.09 30.5936L143.369 30.7771Z" fill="#B43636"/>
</svg>
